<?xml version="1.0" encoding="UTF-8"?>
<!DOCTYPE svg PUBLIC "-//W3C//DTD SVG 1.1//EN" "http://www.w3.org/Graphics/SVG/1.1/DTD/svg11.dtd">
<svg version="1.1" xmlns="http://www.w3.org/2000/svg" xmlns:xlink="http://www.w3.org/1999/xlink" width="260" height="220"  xml:space="preserve">
    <defs>
        <style type="text/css"><![CDATA[
            @media all {
                image.highRes_resource {display:none}
            }
            @media only screen and (-webkit-min-device-pixel-ratio: 2),
                   only screen and (min--moz-device-pixel-ratio: 2),
                   only screen and (-o-min-device-pixel-ratio: 2/1),
                   only screen and (min-device-pixel-ratio: 2),
                   only screen and (min-resolution: 2dppx) {
                image.lowRes_resource  {display:none}
                image.highRes_resource {display:inline}
            }
        ]]></style>
        <filter id="shadow-outer" filterUnits="userSpaceOnUse">
            <feGaussianBlur stdDeviation="2.5" />
            <feOffset dx="0.1" dy="-0.1" result="blur" />
            <feFlood flood-color="rgb(0, 0, 0)" flood-opacity="1" />
            <feComposite in2="blur" operator="in" result="colorShadow" />
            <feComposite in="SourceGraphic" in2="colorShadow" operator="over" />
        </filter>
        <filter id="shadow3-inner" filterUnits="userSpaceOnUse">
            <feGaussianBlur in="SourceAlpha" stdDeviation="0.25" result="blur"/>
            <feOffset dx="0.1" dy="-0.1"/>
            <feComposite in2="SourceAlpha" operator="arithmetic" k2="-1.15" k3="1.15" result="shadowDiff"/>
            <feFlood flood-color="rgb(255, 255, 255)" flood-opacity="1"/>
            <feComposite in2="shadowDiff" operator="in"/>
            <feComposite in2="SourceGraphic" operator="over"/>
        </filter>
        <filter id="shadow3-outer" filterUnits="userSpaceOnUse">
            <feGaussianBlur stdDeviation="0.25" />
            <feOffset dx="0.1" dy="-0.1" result="blur" />
            <feFlood flood-color="rgb(255, 255, 255)" flood-opacity="1" />
            <feComposite in2="blur" operator="in" result="colorShadow" />
            <feComposite in="SourceGraphic" in2="colorShadow" operator="over" />
        </filter>
        <pattern id="logo240-kbblogo" x="79" y="120" width="200" height="200" patternUnits="userSpaceOnUse" viewBox="0 0 200 200">
            <image xlink:href="images/logo240.png" x="0" y="0" width="100" height="100" />
            <image xlink:href="images/logo240_2x.png" x="0" y="0" width="100" height="100" class="highRes_resource" />
        </pattern>
    </defs>
    <g filter="url(#shadow-outer)">
        <path id="redSemiCircle" stroke="none" fill="rgb(195, 24, 21)" filter="url(#shadow3-inner)" d="M 199.71,100.29 C 218.46,119.04 229,144.48 229,171 L 129,171 Z M 199.71,100.29" />
    </g>
    <path stroke="rgb(195, 24, 21)" fill="none" d="M 199.71,100.29 C 218.46,119.04 229,144.48 229,171 L 129,171 Z M 199.71,100.29" />
    <g filter="url(#shadow-outer)">
        <path id="greySemiCircle" stroke="none" fill="rgb(237, 238, 237)" filter="url(#shadow3-inner)" d="M 29,171 C 29,115.77 73.77,71 129,71 155.52,71 180.96,81.54 199.71,100.29 L 129,171 Z M 29,171" />
    </g>
    <path stroke="rgb(237, 238, 237)" fill="none" d="M 29,171 C 29,115.77 73.77,71 129,71 155.52,71 180.96,81.54 199.71,100.29 L 129,171 Z M 29,171" />
    <g filter="url(#shadow-outer)">
        <path id="greenSemiCircle" stroke="none" fill="rgb(101, 160, 89)" fill-opacity="0.86" filter="url(#shadow3-inner)" d="M 51.22,93.22 C 94.18,50.26 163.82,50.26 206.78,93.22 L 129,171 Z M 51.22,93.22" />
    </g>
    <path stroke="rgb(101, 160, 89)" stroke-opacity="0.86" stroke-width="0.5" fill="none" d="M 51.22,93.22 C 94.18,50.26 163.82,50.26 206.78,93.22 L 129,171 Z M 51.22,93.22" />
    <g filter="url(#shadow-outer)">
        <circle id="goodDot" stroke="none" fill="rgb(101, 160, 89)" fill-opacity="0.86" filter="url(#shadow3-inner)" cx="90.5" cy="67.5" r="5" />
    </g>
    <circle stroke="rgb(237, 238, 237)" stroke-width="3" fill="none" filter="url(#shadow3-outer)" cx="90.5" cy="67.5" r="5" />
    <g filter="url(#shadow-outer)">
        <circle id="fairDot" stroke="none" fill="rgb(101, 160, 89)" fill-opacity="0.86" filter="url(#shadow3-inner)" cx="51.5" cy="92.5" r="5" />
    </g>
    <circle stroke="rgb(237, 238, 237)" stroke-width="3" fill="none" filter="url(#shadow3-outer)" cx="51.5" cy="92.5" r="5" />
    <g filter="url(#shadow-outer)">
        <circle id="veryGoodDot" stroke="none" fill="rgb(101, 160, 89)" fill-opacity="0.86" filter="url(#shadow3-inner)" cx="134.5" cy="59.5" r="5" />
    </g>
    <circle stroke="rgb(237, 238, 237)" stroke-width="3" fill="none" filter="url(#shadow3-outer)" cx="134.5" cy="59.5" r="5" />
    <g filter="url(#shadow-outer)">
        <circle id="excellentDot" stroke="none" fill="rgb(101, 160, 89)" fill-opacity="0.86" filter="url(#shadow3-inner)" cx="209.5" cy="92.5" r="5" />
    </g>
    <circle stroke="rgb(237, 238, 237)" stroke-width="3" fill="none" filter="url(#shadow3-outer)" cx="209.5" cy="92.5" r="5" />
    <rect id="privatePartyRange" stroke="none" fill="none" x="79" y="100" width="94" height="10" />
    <text fill="rgb(255, 255, 255)" font-family="Tahoma, Verdana, Segoe, sans-serif" font-size="9" x="79.24" y="100">
        <tspan x="79.24" y="109">PRIVATE PARTY RANGE</tspan>
    </text>
    <rect id="kbblogo" stroke="none" fill="url(#logo240-kbblogo)" x="79" y="120" width="100" height="100" />
    <rect id="minPrice" stroke="none" fill="none" x="29" y="172" width="44" height="17" />
    <text fill="rgb(0, 0, 0)" font-family="Tahoma, Verdana, Segoe, sans-serif" font-size="12" x="29" y="172">
        <tspan x="29" y="184">$0</tspan>
    </text>
    <rect id="maxPrice" stroke="none" fill="none" x="171" y="172" width="60" height="17" />
    <text fill="rgb(0, 0, 0)" font-family="Tahoma, Verdana, Segoe, sans-serif" font-size="12" x="181.51" y="172">
        <tspan x="181.51" y="184">$200,000</tspan>
    </text>
    <rect id="excellentPrice" stroke="none" fill="none" x="188" y="70" width="44" height="17" />
    <text fill="rgb(27, 160, 0)" fill-opacity="0.86" font-family="Tahoma, Verdana, Segoe, sans-serif" font-size="12" x="188.53" y="70">
        <tspan x="188.53" y="82">$10,000</tspan>
    </text>
    <rect id="fairPrice" stroke="none" fill="none" x="27" y="68" width="48" height="17" />
    <text fill="rgb(27, 160, 0)" fill-opacity="0.86" font-family="Tahoma, Verdana, Segoe, sans-serif" font-size="12" x="32.81" y="68">
        <tspan x="32.81" y="80">$1,000</tspan>
    </text>
    <rect id="goodPrice" stroke="none" fill="none" x="67" y="44" width="48" height="17" />
    <text fill="rgb(27, 160, 0)" fill-opacity="0.86" font-family="Tahoma, Verdana, Segoe, sans-serif" font-size="12" x="72.81" y="44">
        <tspan x="72.81" y="56">$1,000</tspan>
    </text>
    <rect id="veryGoodPrice" stroke="none" fill="none" x="111" y="37" width="48" height="17" />
    <text fill="rgb(27, 160, 0)" fill-opacity="0.86" font-family="Tahoma, Verdana, Segoe, sans-serif" font-size="12" x="116.81" y="37">
        <tspan x="116.81" y="49">$1,000</tspan>
    </text>
    <g filter="url(#shadow-outer)">
        <circle id="currentDot" stroke="none" fill="rgb(29, 52, 255)" filter="url(#shadow3-inner)" cx="169.5" cy="68.5" r="5" />
    </g>
    <circle stroke="rgb(237, 238, 237)" stroke-width="3" fill="none" filter="url(#shadow3-outer)" cx="169.5" cy="68.5" r="5" />
    <rect id="currentPrice" stroke="none" fill="none" x="146" y="46" width="48" height="17" />
    <text fill="rgb(29, 52, 255)" font-family="Tahoma, Verdana, Segoe, sans-serif" font-size="12" x="151.81" y="46">
        <tspan x="151.81" y="58">$1,000</tspan>
    </text>
</svg>
